
<svg xmlns="http://www.w3.org/2000/svg" version="1.1" xmlns:xlink="http://www.w3.org/1999/xlink" preserveAspectRatio="none" x="0px" y="0px" width="960px" height="540px" viewBox="0 0 960 540">
<defs>
<g id="tile0_1_Layer2_0_FILL">
<path fill="#0099CC" stroke="none" d="
M 30 0
L 0 0 0 30 30 30 30 0 Z"/>
</g>

<g id="tile0_1_Layer1_0_FILL">
<path fill="#000000" fill-opacity="0.3215686274509804" stroke="none" d="
M 10 0
L 0 10 0 15 15 0 10 0
M 0 0
L 0 5 5 0 0 0
M 20 0
L 0 20 0 25 25 0 20 0
M 25 30
L 30 25 30 20 20 30 25 30
M 30 15
L 30 10 10 30 15 30 30 15
M 30 5
L 30 0 0 30 5 30 30 5 Z"/>
</g>
</defs>

<g id="Layer_3">
<g transform="matrix( 1, 0, 0, 1, 0,0) ">
<g id="Layer_4"/>

<g id="Layer_2">
<g transform="matrix( 1, 0, 0, 1, 0,0) ">
<use xlink:href="#tile0_1_Layer2_0_FILL"/>
</g>
</g>

<g id="Layer_1">
<g transform="matrix( 1, 0, 0, 1, 0,0) ">
<use xlink:href="#tile0_1_Layer1_0_FILL"/>
</g>
</g>

<g id="Layer_7">
<g id="tileBorder" transform="matrix( 1, 0, 0, 1, 0,0) ">
<g id="ambientShadow2" transform="matrix( 1, 0, 0, 1, 0,0) ">
<g id="a1" transform="matrix( 0, -1, 1, 0, 15,15) "/>

<g id="a0" transform="matrix( -1, 0, 0, -1, 15,15) "/>

<g id="a3" transform="matrix( 0, 1, -1, 0, 15,15) "/>

<g id="a2" transform="matrix( 1, 0, 0, 1, 15,15) "/>
</g>

<g id="ambientShadow" transform="matrix( 1, 0, 0, 1, 0,0) "/>
</g>
</g>
</g>
</g>
</svg>
